<svg width="34" height="12" fill="none" xmlns="http://www.w3.org/2000/svg"><path d="M3.527 1.928h1.26L7.853 11H6.86l-.938-2.814H2.393L1.455 11H.461l3.066-9.072Zm-.882 5.474h3.038L4.2 2.698h-.042L2.645 7.402ZM9.375.696h.868v4.046c.56-.495 1.134-.742 1.722-.742.598 0 1.074.089 1.428.266.364.168.635.425.812.77.318.607.476 1.419.476 2.436 0 .644-.08 1.209-.238 1.694-.159.485-.35.85-.574 1.092a2.648 2.648 0 0 1-.742.588 2.508 2.508 0 0 1-1.19.322c-.242 0-.443-.019-.602-.056a8.995 8.995 0 0 1-.364-.07 1.733 1.733 0 0 1-.308-.07c-.112-.047-.2-.08-.266-.098a4.213 4.213 0 0 1-.518-.224c-.28-.14-.448-.22-.504-.238V.696Zm.868 9.366c.523.187 1.018.28 1.484.28.467 0 .822-.056 1.064-.168a1.63 1.63 0 0 0 .546-.406c.122-.15.215-.364.28-.644.075-.373.112-.859.112-1.456 0-1.11-.093-1.862-.28-2.254-.187-.392-.653-.588-1.4-.588-.746 0-1.348.261-1.806.784v4.452Zm10.091-5.04a2.598 2.598 0 0 0-.518-.168 3.761 3.761 0 0 0-.826-.07c-.354 0-.667.06-.938.182a1.13 1.13 0 0 0-.588.588c-.121.27-.2.55-.238.84a9.31 9.31 0 0 0-.056 1.162c0 1.055.117 1.783.35 2.184.243.401.77.602 1.582.602.439 0 .794-.056 1.064-.168a1.14 1.14 0 0 0 .602-.56c.13-.27.215-.55.252-.84.038-.299.056-.649.056-1.05 0-.41-.004-.7-.014-.868 0-.177-.014-.378-.042-.602a1.851 1.851 0 0 0-.126-.532 2.03 2.03 0 0 0-.21-.392.85.85 0 0 0-.35-.308ZM19.144 4c.728 0 1.293.098 1.694.294.402.187.7.537.896 1.05.196.513.294 1.176.294 1.988s-.088 1.46-.266 1.946c-.168.485-.396.859-.686 1.12a2.838 2.838 0 0 1-1.96.756c-1.092 0-1.848-.257-2.268-.77-.42-.513-.63-1.451-.63-2.814 0-.653.089-1.223.266-1.708.178-.485.416-.854.714-1.106.579-.504 1.228-.756 1.946-.756Zm4.723.112h.91v4.914c.01.467.136.793.378.98.252.187.612.28 1.078.28.476 0 .892-.089 1.246-.266.364-.177.579-.345.644-.504V4.112h.896v5.082L29.271 11h-.588l-.042-.042-.294-.784a74.43 74.43 0 0 1-.784.518 3.843 3.843 0 0 1-.7.294c-.298.093-.616.14-.952.14-1.334 0-2.016-.705-2.044-2.114v-4.9Zm7.524.728c0-.047-.023-.07-.07-.07h-.56v-.406l.644-.266.154-1.232h.714v1.12c.028.065.22.098.574.098h.826l-.112.658-1.176.014c-.084 0-.126.019-.126.056v4.424l.364 1.82h-.616l-.056-.042-.56-1.778V4.84Z" fill="#7D6358"/></svg>