<svg width="30" height="10" fill="none" xmlns="http://www.w3.org/2000/svg"><path d="M3.452 1.224h1.08L7.16 9h-.852l-.804-2.412H2.48L1.676 9H.824l2.628-7.776Zm-.756 4.692H5.3L4.028 1.884h-.036L2.696 5.916ZM8.464.168h.744v3.468c.48-.424.973-.636 1.476-.636.513 0 .92.076 1.225.228.311.144.543.364.695.66.273.52.409 1.216.409 2.088 0 .552-.069 1.036-.204 1.452-.136.416-.3.728-.492.936a2.27 2.27 0 0 1-.636.504 2.15 2.15 0 0 1-1.02.276c-.208 0-.38-.016-.516-.048a7.777 7.777 0 0 1-.313-.06 1.486 1.486 0 0 1-.264-.06 2.22 2.22 0 0 0-.228-.084 3.589 3.589 0 0 1-.444-.192 5.574 5.574 0 0 0-.432-.204V.168Zm.744 8.028c.448.16.873.24 1.272.24.4 0 .704-.048.912-.144.209-.104.365-.22.469-.348.103-.128.183-.312.24-.552.063-.32.095-.736.095-1.248 0-.952-.08-1.596-.24-1.932-.16-.336-.56-.504-1.2-.504-.64 0-1.156.224-1.548.672v3.816Zm8.65-4.32a2.228 2.228 0 0 0-.444-.144 3.224 3.224 0 0 0-.708-.06c-.304 0-.572.052-.804.156a.969.969 0 0 0-.504.504 2.549 2.549 0 0 0-.204.72c-.032.24-.048.572-.048.996 0 .904.1 1.528.3 1.872.208.344.66.516 1.356.516.376 0 .68-.048.912-.144a.976.976 0 0 0 .516-.48c.112-.232.184-.472.216-.72.032-.256.048-.556.048-.9 0-.352-.004-.6-.012-.744 0-.152-.012-.324-.036-.516-.024-.2-.06-.352-.108-.456-.04-.104-.1-.216-.18-.336a.728.728 0 0 0-.3-.264ZM16.838 3c.624 0 1.108.084 1.452.252.344.16.6.46.768.9.168.44.252 1.008.252 1.704s-.076 1.252-.228 1.668c-.144.416-.34.736-.588.96-.48.432-1.04.648-1.68.648-.936 0-1.584-.22-1.944-.66-.36-.44-.54-1.244-.54-2.412 0-.56.076-1.048.228-1.464.152-.416.356-.732.612-.948.496-.432 1.052-.648 1.668-.648Zm4.048.096h.78v4.212c.008.4.116.68.324.84.216.16.524.24.924.24a2.36 2.36 0 0 0 1.068-.228c.312-.152.496-.296.552-.432V3.096h.768v4.356L25.518 9h-.504l-.036-.036-.252-.672c-.312.208-.536.356-.672.444a3.29 3.29 0 0 1-.6.252 2.72 2.72 0 0 1-.816.12c-1.144 0-1.728-.604-1.752-1.812v-4.2Zm6.45.624c0-.04-.02-.06-.06-.06h-.48v-.348l.551-.228.132-1.056h.612v.96c.024.056.188.084.492.084h.708l-.096.564-1.008.012c-.072 0-.108.016-.108.048v3.792l.312 1.56h-.528l-.048-.036-.48-1.524V3.72Z" fill="#7D6358"/></svg>