<svg width="62" height="27" fill="none" xmlns="http://www.w3.org/2000/svg"><path d="M47.526 21.6c-1.138 0-2.058 1.215-2.058 2.7s.92 2.7 2.057 2.7c1.138 0 2.068-1.215 2.068-2.7s-.93-2.7-2.068-2.7ZM41.322 0v2.7h2.068l3.722 10.247-1.396 3.307a3.25 3.25 0 0 0-.258 1.296c0 1.485.93 2.7 2.068 2.7h12.406v-2.7H47.96c-.145 0-.259-.149-.259-.338l.031-.162.93-2.2h7.703c.776 0 1.458-.553 1.81-1.39l3.7-8.762c.084-.189.125-.419.125-.648 0-.742-.465-1.35-1.034-1.35H45.675L44.703 0h-3.381Zm16.542 21.6c-1.137 0-2.057 1.215-2.057 2.7s.92 2.7 2.057 2.7c1.138 0 2.069-1.215 2.069-2.7s-.931-2.7-2.069-2.7ZM2.185 17.038v-3.686L0 8.025h.785l1.75 4.506 1.783-4.506h.753l-2.175 5.327-.01 3.686h-.7Zm6.12-5.94a1.666 1.666 0 0 0-.393-.166 2.196 2.196 0 0 0-.625-.07c-.27 0-.506.06-.711.181-.198.112-.347.306-.446.584a3.684 3.684 0 0 0-.18.835 12.08 12.08 0 0 0-.043 1.154c0 1.048.089 1.771.266 2.17.184.399.583.598 1.198.598.333 0 .602-.056.807-.167.205-.111.357-.296.456-.556a3.36 3.36 0 0 0 .19-.835c.029-.296.043-.644.043-1.043 0-.408-.003-.695-.01-.862 0-.176-.011-.376-.032-.598a2.322 2.322 0 0 0-.255-.918.737.737 0 0 0-.265-.306Zm-.902-1.014c.552 0 .98.097 1.284.292.304.185.53.533.679 1.043.148.51.223 1.168.223 1.975 0 .806-.068 1.45-.202 1.933-.127.482-.3.853-.52 1.113-.424.5-.92.75-1.485.75-.827 0-1.4-.254-1.719-.764-.318-.51-.477-1.442-.477-2.796 0-.649.067-1.215.202-1.697.134-.482.314-.848.54-1.098.44-.501.93-.751 1.475-.751Zm3.58.11h.689v4.883c.007.463.102.788.286.973.191.186.463.278.817.278.36 0 .675-.088.944-.264.276-.176.439-.343.488-.5v-5.37h.679v5.05l.191 1.794h-.446l-.031-.042-.223-.779a60.85 60.85 0 0 1-.594.515 2.6 2.6 0 0 1-.53.292 1.883 1.883 0 0 1-.722.139c-1.011 0-1.528-.7-1.549-2.1v-4.868Zm7.769-.11c.141 0 .297.027.467.083l-.255.82a1.418 1.418 0 0 0-.34-.041c-.445 0-.898.325-1.357.973v5.119h-.658v-5.063l-.18-1.697h.403l.032.028.201.988c.311-.4.594-.7.849-.904a1.31 1.31 0 0 1 .838-.306Zm4.973-1.739c.297-.204.573-.334.828-.39.255-.064.583-.097.986-.097.404 0 .899.125 1.486.376l-.17.737c-.637-.167-1.11-.25-1.422-.25-.304 0-.565.023-.785.07a1.84 1.84 0 0 0-.679.277 1.563 1.563 0 0 0-.54.626c-.305.612-.457 1.549-.457 2.81 0 1.548.212 2.587.637 3.115.205.25.417.427.636.529.22.092.46.139.722.139.268 0 .466-.01.594-.028.41-.037.817-.213 1.22-.529l.244.752c-.51.454-1.174.681-1.995.681a3.6 3.6 0 0 1-.827-.084 2.078 2.078 0 0 1-.743-.333 2.118 2.118 0 0 1-.647-.765c-.163-.325-.3-.78-.414-1.363-.113-.584-.17-1.27-.17-2.059 0-.797.071-1.488.213-2.072.141-.584.314-1.039.52-1.363a2.64 2.64 0 0 1 .763-.779Zm8.05 4.534-.011 1.655c0 .26.003.501.01.723l.233 1.697.011.07h-.467l-.042-.042-.255-.806c-.658.593-1.305.904-1.941.931-.446 0-.789-.153-1.03-.459-.233-.315-.35-.755-.35-1.32 0-.78.167-1.308.5-1.586.332-.279.788-.418 1.368-.418.07 0 .498.028 1.284.084v-.904c0-.612-.089-1.034-.266-1.266-.17-.241-.41-.362-.721-.362s-.912.126-1.803.376l-.096-.668c.877-.343 1.506-.514 1.888-.514.58 0 1.04.236 1.38.709.205.287.307.988.307 2.1Zm-.69 1.224-1.114-.056c-.566 0-.934.075-1.104.223-.17.148-.254.445-.254.89 0 .436.056.737.17.904.113.158.307.237.583.237.283 0 .612-.074.987-.223.381-.148.625-.32.731-.514v-1.46Zm4.522-4.02a1.5 1.5 0 0 1 .467.084l-.255.82a1.418 1.418 0 0 0-.34-.041c-.445 0-.897.325-1.357.973v5.119h-.658v-5.063l-.18-1.697h.403l.032.028.201.988c.312-.4.594-.7.85-.904a1.31 1.31 0 0 1 .837-.306Zm1.547.835c0-.046-.018-.07-.053-.07h-.424v-.403l.488-.264.116-1.224h.541v1.113c.022.065.167.097.435.097h.626l-.085.654-.89.014c-.064 0-.096.018-.096.055v4.395l.276 1.808h-.467l-.043-.041-.424-1.767v-4.367Z" fill="#7D6358"/></svg>