<svg width="96" height="22" fill="none" xmlns="http://www.w3.org/2000/svg"><path fill-rule="evenodd" clip-rule="evenodd" d="M95.861.712A.41.41 0 0 0 96 .403.396.396 0 0 0 95.611 0H69.604A.615.615 0 0 0 69 .626c0 .186.08.362.218.481l12.678 10.915a.723.723 0 0 0 .953-.002L95.86.712ZM70.218 4.304c-.484-.417-1.218-.06-1.218.592v15.893c0 .425.333.77.743.77h25.514c.41 0 .743-.345.743-.77V4.587c0-.654-.737-1.01-1.22-.59L82.932 14.29l-.079.069a.723.723 0 0 1-.952.002l-.08-.068-11.604-9.99Z" fill="#7D6358"/><path d="M15.006 9.5c.336-.176.648-.288.936-.336a6.04 6.04 0 0 1 1.116-.084c.456 0 1.016.108 1.68.324l-.192.636c-.72-.144-1.256-.216-1.608-.216-.344 0-.64.02-.888.06a2.497 2.497 0 0 0-.768.24 1.54 1.54 0 0 0-.612.54c-.344.528-.516 1.336-.516 2.424 0 1.336.24 2.232.72 2.688.232.216.472.368.72.456.248.08.52.12.816.12.304 0 .528-.008.672-.024a3.096 3.096 0 0 0 1.38-.456l.276.648c-.576.392-1.328.588-2.256.588-.36 0-.672-.024-.936-.072a2.76 2.76 0 0 1-.84-.288 2.07 2.07 0 0 1-.732-.66c-.184-.28-.34-.672-.468-1.176-.128-.504-.192-1.096-.192-1.776 0-.688.08-1.284.24-1.788.16-.504.356-.896.588-1.176.24-.28.528-.504.864-.672Zm8.28 2.376a2.228 2.228 0 0 0-.444-.144 3.224 3.224 0 0 0-.708-.06c-.304 0-.572.052-.804.156a.969.969 0 0 0-.504.504 2.549 2.549 0 0 0-.204.72c-.032.24-.048.572-.048.996 0 .904.1 1.528.3 1.872.208.344.66.516 1.356.516.376 0 .68-.048.912-.144a.976.976 0 0 0 .516-.48c.112-.232.184-.472.216-.72.032-.256.048-.556.048-.9 0-.352-.004-.6-.012-.744 0-.152-.012-.324-.036-.516-.024-.2-.06-.352-.108-.456-.04-.104-.1-.216-.18-.336a.728.728 0 0 0-.3-.264ZM22.266 11c.624 0 1.108.084 1.452.252.344.16.6.46.768.9.168.44.252 1.008.252 1.704s-.076 1.252-.228 1.668c-.144.416-.34.736-.588.96-.48.432-1.04.648-1.68.648-.936 0-1.584-.22-1.944-.66-.36-.44-.54-1.244-.54-2.412 0-.56.076-1.048.228-1.464.152-.416.356-.732.612-.948.496-.432 1.052-.648 1.668-.648Zm8.536 6h-.78v-4.224c-.008-.392-.12-.672-.336-.84-.208-.168-.508-.252-.9-.252-.384 0-.74.076-1.068.228-.32.152-.508.296-.564.432V17h-.768v-4.38l-.204-1.464h.516l.036.024.228.612c.28-.192.508-.336.684-.432.44-.264.92-.396 1.44-.396 1.12 0 1.692.604 1.716 1.812V17Zm1.914-5.28c0-.04-.02-.06-.06-.06h-.48v-.348l.552-.228.132-1.056h.612v.96c.024.056.188.084.492.084h.708l-.096.564-1.008.012c-.072 0-.108.016-.108.048v3.792l.312 1.56h-.528l-.048-.036-.48-1.524V11.72Zm7.145 1.692-.012 1.428c0 .224.004.432.012.624l.264 1.464.012.06h-.528l-.048-.036-.288-.696c-.744.512-1.476.78-2.196.804-.504 0-.892-.132-1.164-.396-.264-.272-.396-.652-.396-1.14 0-.672.188-1.128.564-1.368.376-.24.892-.36 1.548-.36.08 0 .564.024 1.452.072v-.78c0-.528-.1-.892-.3-1.092-.192-.208-.464-.312-.816-.312-.352 0-1.032.108-2.04.324l-.108-.576c.992-.296 1.704-.444 2.136-.444.656 0 1.176.204 1.56.612.232.248.348.852.348 1.812Zm-.78 1.056-1.26-.048c-.64 0-1.056.064-1.248.192-.192.128-.288.384-.288.768 0 .376.064.636.192.78.128.136.348.204.66.204.32 0 .692-.064 1.116-.192.432-.128.708-.276.828-.444v-1.26Zm3.364-2.904c.304-.208.6-.356.888-.444.288-.088.612-.132.972-.132.368 0 .772.076 1.212.228l-.096.528c-.44-.088-.792-.132-1.056-.132-.688 0-1.212.18-1.572.54-.36.352-.54.988-.54 1.908 0 1.616.656 2.424 1.968 2.424.408 0 .844-.144 1.308-.432l.324.504c-.52.376-1.128.564-1.824.564-.36 0-.676-.036-.948-.108a2.34 2.34 0 0 1-.792-.408c-.56-.416-.84-1.264-.84-2.544 0-.6.092-1.112.276-1.536.184-.432.424-.752.72-.96Zm4.826.156c0-.04-.02-.06-.06-.06h-.48v-.348l.552-.228.132-1.056h.612v.96c.024.056.188.084.492.084h.708l-.096.564-1.008.012c-.072 0-.108.016-.108.048v3.792l.312 1.56h-.528l-.048-.036-.48-1.524V11.72Zm5.75-.624h.78v4.212c.008.4.116.68.324.84.216.16.524.24.924.24a2.36 2.36 0 0 0 1.068-.228c.312-.152.496-.296.552-.432v-4.632h.768v4.356L57.653 17h-.504l-.036-.036-.252-.672c-.312.208-.536.356-.672.444a3.29 3.29 0 0 1-.6.252 2.72 2.72 0 0 1-.816.12c-1.144 0-1.728-.604-1.752-1.812v-4.2Zm6.101 5.088c.496.192.96.288 1.392.288.432 0 .8-.088 1.104-.264.312-.184.468-.424.468-.72a.88.88 0 0 0-.312-.708 2.42 2.42 0 0 0-.756-.444 40.71 40.71 0 0 1-.888-.348 2.25 2.25 0 0 1-.744-.528 1.23 1.23 0 0 1-.312-.852c0-.528.184-.932.552-1.212.368-.288.828-.432 1.38-.432.56 0 1.096.092 1.608.276l-.156.552a4.2 4.2 0 0 0-1.356-.204c-.832 0-1.248.324-1.248.972 0 .416.36.76 1.08 1.032.304.112.604.236.9.372a2 2 0 0 1 .768.564c.216.248.324.548.324.9 0 .536-.232.948-.696 1.236-.464.288-1 .432-1.608.432a4.278 4.278 0 0 1-1.68-.324l.18-.588Z" fill="#7D6358"/></svg>