<svg width="99" height="27" fill="none" xmlns="http://www.w3.org/2000/svg"><path fill-rule="evenodd" clip-rule="evenodd" d="M83.5.46c-.235 0-.47.08-.66.237L68.36 12.704a.976.976 0 0 0-.117 1.4 1.036 1.036 0 0 0 1.436.114l2.667-2.211v12.048c0 1.329 1.104 2.406 2.466 2.406H92.19c1.362 0 2.467-1.077 2.467-2.406V12.007l2.666 2.21a1.036 1.036 0 0 0 1.436-.113.976.976 0 0 0-.117-1.4L94.305 9.11l-.008-.007L84.16.697a1.031 1.031 0 0 0-.66-.236Zm0 2.298 9.12 7.56v13.737c0 .232-.193.42-.43.42H74.81a.425.425 0 0 1-.43-.42V10.318l9.12-7.56Z" fill="#7D6358"/><path d="M13.988 14.224h.792V22h-.792v-3.696h-3.72V22h-.792v-7.776h.791v3.408h3.72v-3.408Zm5.99 2.652a2.228 2.228 0 0 0-.444-.144 3.224 3.224 0 0 0-.708-.06c-.304 0-.572.052-.804.156a.969.969 0 0 0-.504.504 2.549 2.549 0 0 0-.204.72c-.032.24-.048.572-.048.996 0 .904.1 1.528.3 1.872.208.344.66.516 1.356.516.376 0 .68-.048.912-.144a.976.976 0 0 0 .516-.48c.112-.232.184-.472.216-.72.032-.256.048-.556.048-.9 0-.352-.004-.6-.012-.744 0-.152-.012-.324-.036-.516-.024-.2-.06-.352-.108-.456-.04-.104-.1-.216-.18-.336a.728.728 0 0 0-.3-.264ZM18.958 16c.624 0 1.108.084 1.452.252.344.16.6.46.768.9.168.44.252 1.008.252 1.704s-.076 1.252-.228 1.668c-.144.416-.34.736-.588.96-.48.432-1.04.648-1.68.648-.936 0-1.584-.22-1.944-.66-.36-.44-.54-1.244-.54-2.412 0-.56.076-1.048.228-1.464.152-.416.356-.732.612-.948.496-.432 1.052-.648 1.668-.648Zm8.296 6h-.78v-4.224c-.016-.416-.096-.7-.24-.852-.136-.16-.392-.24-.768-.24s-.728.08-1.056.24c-.32.152-.508.296-.564.432V22h-.768v-4.38l-.204-1.464h.564l.036.036.18.6c.304-.2.528-.344.672-.432a3.47 3.47 0 0 1 .624-.264c.264-.088.532-.132.804-.132.672 0 1.12.268 1.344.804.288-.192.512-.332.672-.42a2.77 2.77 0 0 1 1.392-.384c.48 0 .848.136 1.104.408.264.272.4.74.408 1.404V22h-.78v-4.224c-.016-.416-.096-.7-.24-.852-.136-.16-.396-.24-.78-.24-.376 0-.724.08-1.044.24-.32.152-.512.296-.576.432V22Zm9.6-3.852c0 .288-.023.588-.071.9h-3.768c.032.88.18 1.488.444 1.824.264.328.732.492 1.404.492.504 0 1.092-.108 1.764-.324l.072.6a6.59 6.59 0 0 1-.432.156 3.35 3.35 0 0 0-.312.096l-.252.072a5.144 5.144 0 0 1-.24.06c-.104.024-.192.04-.264.048-.216.024-.4.036-.552.036-.752 0-1.344-.264-1.776-.792-.432-.528-.648-1.264-.648-2.208 0-.52.064-.976.192-1.368.128-.4.28-.704.456-.912.176-.216.388-.388.636-.516.368-.2.768-.308 1.2-.324 1.432.008 2.148.728 2.148 2.16Zm-.755-.192c0-.48-.12-.816-.36-1.008-.24-.192-.596-.288-1.068-.288-.472 0-.86.128-1.164.384-.304.248-.46.712-.468 1.392h3.024c.024-.184.036-.344.036-.48Zm7.28 1.008-.72-.012h-.551V22h-.804v-7.776h2.28c.424 0 .78.028 1.068.084.296.048.58.148.852.3.544.32.816.972.816 1.956 0 .824-.196 1.428-.588 1.812a1.81 1.81 0 0 1-.672.384 3.92 3.92 0 0 1-.78.168 9.31 9.31 0 0 1-.9.036Zm-.48-.696.913.012c.648 0 1.088-.1 1.32-.3.232-.208.348-.664.348-1.368 0-.704-.148-1.156-.444-1.356-.288-.2-.82-.3-1.596-.3h-1.332v3.312h.792Zm8.771.144-.012 1.428c0 .224.004.432.012.624l.264 1.464.012.06h-.528l-.048-.036-.288-.696c-.744.512-1.476.78-2.196.804-.504 0-.892-.132-1.164-.396-.264-.272-.396-.652-.396-1.14 0-.672.188-1.128.564-1.368.376-.24.892-.36 1.548-.36.08 0 .564.024 1.452.072v-.78c0-.528-.1-.892-.3-1.092-.192-.208-.464-.312-.816-.312-.352 0-1.032.108-2.04.324l-.108-.576c.992-.296 1.704-.444 2.136-.444.656 0 1.176.204 1.56.612.232.248.348.852.348 1.812Zm-.78 1.056-1.26-.048c-.64 0-1.056.064-1.248.192-.192.128-.288.384-.288.768 0 .376.064.636.192.78.128.136.348.204.66.204.32 0 .692-.064 1.116-.192.432-.128.708-.276.828-.444v-1.26Zm6.604-1.572c0 .624-.184 1.12-.552 1.488-.36.36-.852.54-1.476.54-.192 0-.444-.028-.756-.084l-.672.936 3.012-.012c.4 0 .708.152.924.456.216.296.324.68.324 1.152 0 .664-.264 1.172-.792 1.524-.52.352-1.18.528-1.98.528s-1.392-.14-1.776-.42c-.376-.272-.564-.708-.564-1.308l1.14-1.176c-.44 0-.732-.06-.876-.18-.136-.12-.204-.308-.204-.564.328-.368.64-.748.936-1.14-.296-.224-.492-.468-.588-.732-.096-.272-.144-.616-.144-1.032 0-.616.192-1.1.576-1.452.384-.352.888-.528 1.512-.528.416 0 .792.088 1.128.264l1.332.012-.156.624-.684.012c.224.368.336.732.336 1.092Zm-2.04 5.916c.376 0 .64-.008.792-.024.152-.008.312-.04.48-.096.176-.048.316-.116.42-.204.248-.2.368-.528.36-.984 0-.448-.052-.724-.156-.828-.096-.112-.352-.168-.768-.168h-1.62l-.984 1.308c0 .44.172.724.516.852.264.096.584.144.96.144Zm.012-4.488c.88 0 1.32-.464 1.32-1.392 0-.528-.108-.896-.324-1.104-.208-.216-.532-.324-.972-.324-.44 0-.768.112-.984.336-.216.216-.328.584-.336 1.104 0 .92.432 1.38 1.296 1.38Zm8.354-1.176c0 .288-.024.588-.072.9H59.98c.032.88.18 1.488.444 1.824.264.328.732.492 1.404.492.504 0 1.092-.108 1.764-.324l.072.6a6.59 6.59 0 0 1-.432.156 3.35 3.35 0 0 0-.312.096l-.252.072a5.144 5.144 0 0 1-.24.06c-.104.024-.192.04-.264.048-.216.024-.4.036-.552.036-.752 0-1.344-.264-1.776-.792-.432-.528-.648-1.264-.648-2.208 0-.52.064-.976.192-1.368.128-.4.28-.704.456-.912.176-.216.388-.388.636-.516.368-.2.768-.308 1.2-.324 1.432.008 2.148.728 2.148 2.16Zm-.756-.192c0-.48-.12-.816-.36-1.008-.24-.192-.596-.288-1.068-.288-.472 0-.86.128-1.164.384-.304.248-.46.712-.468 1.392h3.024c.024-.184.036-.344.036-.48Z" fill="#7D6358"/></svg>