<svg width="64" height="23" fill="none" xmlns="http://www.w3.org/2000/svg"><ellipse cx="53.471" cy="3.957" rx="4.496" ry="3.957" fill="#7D6358"/><path d="M53.5 10.11c7.58.17 9.333 4.198 10.5 12.1H43c2.228-7.212 2.612-11.463 10.5-12.1ZM1.124 18.1c.616.232 1.28.348 1.992.348s1.216-.104 1.512-.312c.296-.216.444-.612.444-1.188 0-.304-.096-.556-.288-.756a2.337 2.337 0 0 0-.504-.384l-.432-.216c-.136-.064-.304-.14-.504-.228a48.72 48.72 0 0 0-.504-.228c-.144-.072-.34-.172-.588-.3a3.443 3.443 0 0 1-.528-.336 7.104 7.104 0 0 1-.348-.348c-.224-.248-.336-.568-.336-.96 0-.664.228-1.18.684-1.548.456-.376 1.044-.564 1.764-.564s1.388.1 2.004.3l-.156.6c-.496-.16-1.068-.24-1.716-.24-.64 0-1.092.104-1.356.312-.264.2-.396.548-.396 1.044 0 .368.188.672.564.912.304.192.772.428 1.404.708.632.272 1.06.484 1.284.636.568.384.856.904.864 1.56 0 1.464-.948 2.196-2.844 2.196a6.904 6.904 0 0 1-2.22-.348l.204-.66Zm6.32-5.004h.744V19h-.744v-5.904Zm-.048-1.98h.84v.864h-.84v-.864Zm6.61 3.78c0 .624-.185 1.12-.553 1.488-.36.36-.852.54-1.476.54-.192 0-.444-.028-.756-.084l-.672.936 3.012-.012c.4 0 .708.152.924.456.216.296.324.68.324 1.152 0 .664-.264 1.172-.792 1.524-.52.352-1.18.528-1.98.528s-1.392-.14-1.776-.42c-.376-.272-.564-.708-.564-1.308l1.14-1.176c-.44 0-.732-.06-.876-.18-.136-.12-.204-.308-.204-.564.328-.368.64-.748.936-1.14-.296-.224-.492-.468-.588-.732-.096-.272-.144-.616-.144-1.032 0-.616.192-1.1.576-1.452.384-.352.888-.528 1.512-.528.416 0 .792.088 1.128.264l1.332.012-.156.624-.684.012c.224.368.336.732.336 1.092Zm-2.04 5.916c.375 0 .64-.008.791-.024.152-.008.312-.04.48-.096.176-.048.316-.116.42-.204.248-.2.368-.528.36-.984 0-.448-.052-.724-.156-.828-.096-.112-.352-.168-.768-.168h-1.62l-.984 1.308c0 .44.172.724.516.852.264.096.584.144.96.144Zm.011-4.488c.88 0 1.32-.464 1.32-1.392 0-.528-.108-.896-.324-1.104-.208-.216-.532-.324-.972-.324-.44 0-.768.112-.984.336-.216.216-.328.584-.336 1.104 0 .92.432 1.38 1.296 1.38ZM20.521 19h-.78v-4.224c-.008-.392-.12-.672-.336-.84-.208-.168-.508-.252-.9-.252-.384 0-.74.076-1.068.228-.32.152-.508.296-.564.432V19h-.768v-4.38l-.204-1.464h.516l.036.024.228.612c.28-.192.508-.336.684-.432.44-.264.92-.396 1.44-.396 1.12 0 1.692.604 1.716 1.812V19Zm7.355.12h-.168c-.096 0-.192-.004-.288-.012-.096 0-.244-.016-.444-.048a1.943 1.943 0 0 1-.504-.12 2.982 2.982 0 0 1-.468-.288 1.58 1.58 0 0 1-.408-.456c-.264-.424-.396-.972-.396-1.644v-5.328h.804v5.328c.024 1.256.648 1.884 1.872 1.884.52 0 .952-.152 1.296-.456.344-.304.516-.764.516-1.38v-5.376h.78l-.012 5.352c0 1.696-.86 2.544-2.58 2.544Zm6.868-6.132c.928 0 1.548.292 1.86.876.152.288.256.596.312.924A7.5 7.5 0 0 1 37 16.036c0 .504-.068.964-.204 1.38-.136.408-.296.716-.48.924a2.27 2.27 0 0 1-.636.504c-.344.184-.676.276-.996.276-.312 0-.8-.14-1.464-.42v2.712h-.744V14.62l-.204-1.452h.492l.036.036.216.612c.52-.552 1.096-.828 1.728-.828Zm-1.524 5.196c.432.152.852.228 1.26.228.416 0 .724-.048.924-.144.208-.104.36-.216.456-.336.104-.128.18-.316.228-.564.056-.248.084-.444.084-.588.008-.144.012-.388.012-.732 0-.352-.008-.632-.024-.84a3.822 3.822 0 0 0-.084-.66c-.04-.232-.108-.396-.204-.492-.24-.24-.596-.36-1.068-.36-.672 0-1.2.22-1.584.66v3.828Z" fill="#7D6358"/></svg>